<svg xmlns="http://www.w3.org/2000/svg" xmlns:svg="http://www.w3.org/2000/svg" id="svg8" width="200" height="80" version="1.1" viewBox="0 0 52.917 21.167"><defs id="defs2"><style id="style6109">.cls-2,.cls-4{stroke:#000;stroke-width:20px}.cls-4{stroke-linejoin:round}.cls-2,.cls-4{fill:none}.cls-2{stroke-linecap:round;stroke-miterlimit:10}</style></defs><metadata id="metadata5"/><g id="layer1" transform="translate(0,-275.83334)"><rect style="opacity:1;fill:#000;fill-opacity:1;fill-rule:nonzero;stroke:#282828;stroke-width:0;stroke-linecap:butt;stroke-linejoin:miter;stroke-miterlimit:4;stroke-dasharray:none;stroke-dashoffset:0;stroke-opacity:1;paint-order:normal" id="rect815" width="52.917" height="21.167" x="0" y="275.833" ry="3.2"/></g><g id="layer2" transform="translate(0,-58.833338)"><path style="fill:none;stroke:#fff;stroke-width:.50990957px;stroke-linecap:round;stroke-miterlimit:10;stroke-opacity:1" id="path6117" d="m 5.4949094,70.197847 v -2.76371 c 0,-0.130537 0.073427,-0.203964 0.2039639,-0.203964 h 0.8158554 c 0.1305366,0 0.2039638,0.07343 0.2039638,0.203964 v 0.166486 c 0.1868818,-0.28249 0.5119492,-0.484414 0.9382337,-0.484414 0.411752,0 0.7393688,0.166485 0.9458822,0.485688 0.2643881,-0.282999 0.604243,-0.485688 1.093756,-0.485688 v 0 c 0.7995386,0 1.2645766,0.50583 1.2645766,1.444063 v 2.545469" class="cls-2"/><path style="fill:none;fill-opacity:1;stroke:#fff;stroke-width:.50990957px;stroke-linejoin:round;stroke-opacity:1" id="path6121" d="m 5.4949094,70.605775 v -0.815856 a 0.20396384,0.20396384 0 0 1 0.2039639,-0.203963 h 0.8158554 a 0.20396384,0.20396384 0 0 1 0.2039638,0.203963 v 0.815856 A 0.20396384,0.20396384 0 0 1 6.5147287,70.809739 H 5.6988733 A 0.20396384,0.20396384 0 0 1 5.4949094,70.605775 Z" class="cls-4"/><path style="fill:none;stroke:#fff;stroke-width:.50990957px;stroke-linecap:round;stroke-miterlimit:10;stroke-opacity:1" id="path6123" d="m 11.752775,72.737197 v -5.30306 c 0,-0.130537 0.07343,-0.203964 0.203964,-0.203964 h 0.815855 c 0.130537,0 0.203964,0.07343 0.203964,0.203964 v 0.176939 c 0.272292,-0.310535 0.669512,-0.495122 1.215625,-0.495122 1.06877,0 1.949894,0.938233 1.949894,2.153858 0,1.215624 -0.881124,2.153858 -1.949894,2.153858 -0.546113,0 -0.943333,-0.184078 -1.215625,-0.495122 v 1.808649" class="cls-2"/><circle style="fill:none;stroke:#fff;stroke-width:.50990957px;stroke-linejoin:round;stroke-opacity:1" id="circle6125" cx="10.706" cy="69.417" r="6.483" class="cls-4"/></g><g id="layer3" transform="translate(0,-58.833338)"><text style="font-style:normal;font-variant:normal;font-weight:400;font-stretch:normal;font-size:3.36020827px;line-height:1.29999995;font-family:sans-serif;-inkscape-font-specification:'sans-serif, Normal';font-variant-ligatures:normal;font-variant-caps:normal;font-variant-numeric:normal;font-feature-settings:normal;text-align:start;letter-spacing:0;word-spacing:0;writing-mode:lr-tb;text-anchor:start;fill:#fff;fill-opacity:1;stroke:none;stroke-width:.07000434" id="text6144" x="21.177" y="68.16" xml:space="preserve"><tspan style="font-style:normal;font-variant:normal;font-weight:400;font-stretch:normal;font-size:3.36020827px;line-height:1.29999995;font-family:sans-serif;-inkscape-font-specification:'sans-serif, Normal';font-variant-ligatures:normal;font-variant-caps:normal;font-variant-numeric:normal;font-feature-settings:normal;text-align:start;writing-mode:lr-tb;text-anchor:start;fill:#fff;fill-opacity:1;stroke-width:.07000434" id="tspan6148" x="21.177" y="68.16">This server will</tspan><tspan style="font-style:normal;font-variant:normal;font-weight:400;font-stretch:normal;font-size:3.36020827px;line-height:1.29999995;font-family:sans-serif;-inkscape-font-specification:'sans-serif, Normal';font-variant-ligatures:normal;font-variant-caps:normal;font-variant-numeric:normal;font-feature-settings:normal;text-align:start;writing-mode:lr-tb;text-anchor:start;fill:#fff;fill-opacity:1;stroke-width:.07000434" id="tspan6152" x="21.177" y="72.528">run on open.mp!</tspan></text></g></svg>